<svg xmlns="http://www.w3.org/2000/svg" width="16.007" height="16.598" viewBox="0 0 16.007 16.598">
  <g id="Untitled-2-05" transform="translate(-0.993 -0.999)">
    <path id="Shape" d="M.27,0,0,.96" transform="translate(4.5 13.02)" fill="none" stroke="#6bb9f0" stroke-linecap="round" stroke-miterlimit="10" stroke-width="1"/>
    <path id="Shape-2" data-name="Shape" d="M.27,0,0,.96" transform="translate(7.5 13.02)" fill="none" stroke="#6bb9f0" stroke-linecap="round" stroke-miterlimit="10" stroke-width="1"/>
    <path id="Shape-3" data-name="Shape" d="M.27,0,0,.96" transform="translate(10.5 13.02)" fill="none" stroke="#6bb9f0" stroke-linecap="round" stroke-miterlimit="10" stroke-width="1"/>
    <path id="Shape-4" data-name="Shape" d="M.27,0,0,.96" transform="translate(13.5 13.02)" fill="none" stroke="#6bb9f0" stroke-linecap="round" stroke-miterlimit="10" stroke-width="1"/>
    <path id="Shape-5" data-name="Shape" d="M.27,0,0,.96" transform="translate(5.5 16.02)" fill="none" stroke="#6bb9f0" stroke-linecap="round" stroke-miterlimit="10" stroke-width="1"/>
    <path id="Shape-6" data-name="Shape" d="M.27,0,0,.96" transform="translate(8.5 16.02)" fill="none" stroke="#6bb9f0" stroke-linecap="round" stroke-miterlimit="10" stroke-width="1"/>
    <path id="Shape-7" data-name="Shape" d="M.27,0,0,.96" transform="translate(11.5 16.02)" fill="none" stroke="#6bb9f0" stroke-linecap="round" stroke-miterlimit="10" stroke-width="1"/>
    <path id="Shape-8" data-name="Shape" d="M12.007,3a4,4,0,0,0-1.47.29A5.5,5.5,0,1,0,5.507,11h6.5a4,4,0,1,0,0-8Z" transform="translate(0.993 0.999)" fill="transparent"/>
  </g>
</svg>
